<svg width="13" height="8" viewBox="0 0 13 8" fill="none" xmlns="http://www.w3.org/2000/svg">
<path d="M2.22519 0.442946L6.68653 4.90432L11.1479 0.442946C11.4998 0.0909597 12.0706 0.0909597 12.4225 0.442946C12.7745 0.794939 12.7745 1.36562 12.4225 1.71759L7.32388 6.81629C7.15479 6.9853 6.92557 7.08027 6.68653 7.08027C6.4475 7.08027 6.2182 6.9853 6.04919 6.81629L0.950518 1.71759C0.906519 1.6736 0.868021 1.62623 0.835018 1.57619C0.604026 1.22637 0.642524 0.75094 0.950518 0.442946C0.994517 0.398947 1.04193 0.36045 1.09191 0.327454C1.44176 0.0964545 1.91719 0.134959 2.22519 0.442946Z" fill="white"/>
</svg>
