<svg width="20" height="20" viewBox="0 0 20 20" fill="none" xmlns="http://www.w3.org/2000/svg">
<path fill-rule="evenodd" clip-rule="evenodd" d="M10 11.5C11.933 11.5 13.5 9.933 13.5 8C13.5 6.067 11.933 4.5 10 4.5C8.067 4.5 6.5 6.067 6.5 8C6.5 9.933 8.067 11.5 10 11.5ZM10 9C10.5523 9 11 8.5523 11 8C11 7.44772 10.5523 7 10 7C9.4477 7 9 7.44772 9 8C9 8.5523 9.4477 9 10 9Z" fill="white"/>
<path fill-rule="evenodd" clip-rule="evenodd" d="M15.2112 18.5365C18.0833 16.7794 20 13.6136 20 10C20 4.47715 15.5228 0 10 0C4.47715 0 0 4.47715 0 10C0 12.4815 0.90389 14.752 2.4004 16.5C2.77735 16.9403 3.1919 17.3474 3.63907 17.7165C5.36766 19.143 7.58376 20 10 20C11.9093 20 13.6936 19.4649 15.2112 18.5365ZM15.749 14.8168C16.8419 13.5137 17.5 11.8337 17.5 10C17.5 5.85786 14.1421 2.5 10 2.5C5.85786 2.5 2.5 5.85786 2.5 10C2.5 11.8337 3.15808 13.5137 4.25095 14.8168C5.87725 13.6721 7.86013 13 10 13C12.1398 13 14.1227 13.6721 15.749 14.8168ZM13.7447 16.4997C12.6424 15.8631 11.3641 15.5 10 15.5C8.6359 15.5 7.35759 15.8631 6.25528 16.4997C7.2788 17.0906 8.4549 17.4468 9.7101 17.4945C9.8063 17.4982 9.9029 17.5 10 17.5C10.1019 17.5 10.2035 17.498 10.3045 17.4939C11.5541 17.444 12.7251 17.0884 13.7447 16.4997Z" fill="white"/>
</svg>
