<svg width="22" height="17" viewBox="0 0 22 17" fill="none" xmlns="http://www.w3.org/2000/svg">
<path fill-rule="evenodd" clip-rule="evenodd" d="M15.9847 9.29789C14.817 9.79834 13.4597 9.34343 12.8293 8.24038L10.9999 5.03894L9.17055 8.24038C8.54024 9.34343 7.18286 9.79834 6.01514 9.29789L3.15589 8.0725L4.14474 14.5H17.8551L18.844 8.0725L15.9847 9.29789ZM21.1718 4.35495C21.5325 4.20035 21.9226 4.50264 21.8629 4.89055L20.2608 15.3041C20.1107 16.2798 19.2712 17 18.2841 17H3.71578C2.72864 17 1.88914 16.2798 1.73904 15.3041L0.136947 4.89055C0.0772671 4.50264 0.467346 4.20035 0.828092 4.35495L6.99994 7.00003L10.5658 0.759743C10.7578 0.423836 11.2421 0.423836 11.4341 0.759743L14.9999 7.00003L21.1718 4.35495Z" fill="white"/>
</svg>
