<svg width="19" height="21" viewBox="0 0 19 21" fill="none" xmlns="http://www.w3.org/2000/svg">
<path fill-rule="evenodd" clip-rule="evenodd" d="M10.2122 15.3265C9.49632 15.8721 8.50411 15.8721 7.78811 15.3265L0.588175 9.8409C-0.462375 9.0405 -0.462375 7.4596 0.588175 6.65918L7.78811 1.17354C8.50411 0.628027 9.49632 0.628027 10.2122 1.17354L17.4122 6.65918C18.4627 7.4596 18.4627 9.0405 17.4122 9.8409L10.2122 15.3265ZM15.375 8.25004L9.00022 13.1071L2.62528 8.25004L9.00022 3.39299L15.375 8.25004Z" fill="white"/>
<path d="M16.314 13.1776C16.7405 12.8526 17.3316 12.8528 17.758 13.1779C18.3832 13.6546 18.3832 14.5955 17.758 15.0722L10.2128 20.8254C9.4966 21.3715 8.5037 21.3715 7.7875 20.8254L0.242307 15.0722C-0.382852 14.5955 -0.382852 13.6546 0.242307 13.1779C0.295608 13.1372 0.351488 13.1017 0.409288 13.0712C0.813918 12.8578 1.31314 12.8933 1.68635 13.1776L9.0002 18.75L16.314 13.1776Z" fill="white"/>
</svg>
