<svg width="18" height="14" viewBox="0 0 18 14" fill="none" xmlns="http://www.w3.org/2000/svg">
<path d="M-0.00012207 1.49998C-0.00012207 0.726777 0.626679 0.0999756 1.39988 0.0999756C2.17308 0.0999756 2.79988 0.726777 2.79988 1.49998C2.79988 2.27317 2.17308 2.89998 1.39988 2.89998C0.626679 2.89998 -0.00012207 2.27317 -0.00012207 1.49998Z" fill="black"/>
<path d="M4.49995 1.49998C4.49995 0.80962 5.0596 0.249976 5.74995 0.249976H16.75C17.4403 0.249976 18 0.80962 18 1.49998C18 2.19033 17.4403 2.74998 16.75 2.74998H5.74995C5.0596 2.74998 4.49995 2.19033 4.49995 1.49998Z" fill="black"/>
<path d="M-0.00012207 6.99994C-0.00012207 6.22674 0.626679 5.59994 1.39988 5.59994C2.17308 5.59994 2.79988 6.22674 2.79988 6.99994C2.79988 7.77314 2.17308 8.39994 1.39988 8.39994C0.626679 8.39994 -0.00012207 7.77314 -0.00012207 6.99994Z" fill="black"/>
<path d="M5.74995 5.74998C5.0596 5.74998 4.49995 6.30962 4.49995 6.99998C4.49995 7.69033 5.0596 8.24998 5.74995 8.24998H16.75C17.4403 8.24998 18 7.69033 18 6.99998C18 6.30962 17.4403 5.74998 16.75 5.74998H5.74995Z" fill="black"/>
<path d="M4.49995 12.5C4.49995 11.8096 5.0596 11.25 5.74995 11.25H16.75C17.4403 11.25 18 11.8096 18 12.5C18 13.1903 17.4403 13.75 16.75 13.75H5.74995C5.0596 13.75 4.49995 13.1903 4.49995 12.5Z" fill="black"/>
<path d="M-0.00012207 12.5C-0.00012207 11.7268 0.626679 11.1 1.39988 11.1C2.17308 11.1 2.79988 11.7268 2.79988 12.5C2.79988 13.2732 2.17308 13.9 1.39988 13.9C0.626679 13.9 -0.00012207 13.2732 -0.00012207 12.5Z" fill="black"/>
</svg>
