<svg width="18" height="14" viewBox="0 0 18 14" fill="none" xmlns="http://www.w3.org/2000/svg">
<path d="M0 1.5C0 0.80964 0.55965 0.25 1.25 0.25H16.75C17.4403 0.25 18 0.80964 18 1.5C18 2.19036 17.4403 2.75 16.75 2.75H1.25C0.55964 2.75 0 2.19036 0 1.5Z" fill="black"/>
<path d="M1.25 5.75C0.55965 5.75 0 6.3096 0 7C0 7.6903 0.55964 8.25 1.25 8.25H16.75C17.4403 8.25 18 7.6903 18 7C18 6.3096 17.4403 5.75 16.75 5.75H1.25Z" fill="black"/>
<path d="M0 12.5C0 11.8096 0.55965 11.25 1.25 11.25H16.75C17.4403 11.25 18 11.8096 18 12.5C18 13.1904 17.4403 13.75 16.75 13.75H1.25C0.55964 13.75 0 13.1904 0 12.5Z" fill="black"/>
</svg>
