<svg width="20" height="20" viewBox="0 0 20 20" fill="none" xmlns="http://www.w3.org/2000/svg">
<path fill-rule="evenodd" clip-rule="evenodd" d="M10 20C15.5228 20 20 15.5228 20 10C20 4.47715 15.5228 0 10 0C4.47715 0 0 4.47715 0 10C0 15.5228 4.47715 20 10 20ZM5.52963 11.125C5.64523 13.3051 6.09271 15.2664 6.75984 16.7659C4.56307 15.712 2.95907 13.6197 2.58381 11.125H5.52963ZM5.52963 8.875C5.64523 6.69491 6.09271 4.73356 6.75984 3.2341C4.56307 4.28803 2.95907 6.38032 2.58381 8.875H5.52963ZM13.2402 3.2341C13.9073 4.73356 14.3548 6.69491 14.4704 8.875H17.4162C17.0409 6.38032 15.4369 4.28803 13.2402 3.2341ZM14.4704 11.125C14.3548 13.3051 13.9073 15.2664 13.2402 16.7659C15.4369 15.712 17.0409 13.6197 17.4162 11.125H14.4704ZM8.8609 4.04859C8.3136 5.23445 7.89972 6.91395 7.78314 8.875H12.2169C12.1003 6.91395 11.6864 5.23445 11.1391 4.04859C10.5781 2.83308 10.1166 2.57072 10 2.51477C9.8834 2.57072 9.4219 2.83308 8.8609 4.04859ZM12.2169 11.125H7.78314C7.89972 13.0861 8.3136 14.7656 8.8609 15.9514C9.4219 17.1669 9.8834 17.4293 10 17.4852C10.1166 17.4293 10.5781 17.1669 11.1391 15.9514C11.6864 14.7656 12.1003 13.0861 12.2169 11.125Z" fill="white"/>
</svg>
